# xmcd
#
# Track frame offsets: 
#        182
#        23222
#        82420
#        106982
#        173695
#        218580
#        241155
#        269582
#
# Disc length: 3994 seconds
#
# Revision: 1
# Processed by: cddbd v1.5.1PL2 Copyright (c) Steve Scherf et al.
# Submitted via: ExactAudioCopy v0.95b3
#
DISCID=680f9808
DTITLE=Sir Georg Solti and Chicago Symphonie Orchestra and Chorus - Missa 
DTITLE=Solemnis by Ludwig van Beethoven CD1
DYEAR=1980
DGENRE=Classical
TTITLE0=Quattro pezzi sacri - Ave Maria
TTITLE1=Quattro pezzi sacre - Stabat Mater
TTITLE2=Quattro pezzi sacri - Laudi alla Vergine Maria
TTITLE3=Quattro pezzi sacri - Te Deum
TTITLE4=Missa Solemnis - Kyrie
TTITLE5=Missa Solemnis - Gloria
TTITLE6=Missa Solemnis - Qui Tollis
TTITLE7=Missa Solemnis - Quoniam
EXTD=1980 Polydor International GmbH, Hamburg\n(Archiv Produktion]\nSt
EXTD=ereo 415 130-2\n
EXTT0=
EXTT1=
EXTT2=
EXTT3=
EXTT4=
EXTT5=
EXTT6=
EXTT7=
PLAYORDER=
